HIERARCHY
ROOT Hips
{
 OFFSET 0.000000 0.000000 0.000000
 CHANNELS 6 Xposition Yposition Zposition Yrotation Xrotation Zrotation
 JOINT Chest
 {
  OFFSET 0.000000 9.585900 0.002600
  CHANNELS 3 Yrotation Xrotation Zrotation
  JOINT Chest2
  {
   OFFSET 0.000000 9.601200 -0.005300
   CHANNELS 3 Yrotation Xrotation Zrotation
   JOINT Chest3
   {
    OFFSET 0.000000 9.561800 0.000000
    CHANNELS 3 Yrotation Xrotation Zrotation
    JOINT Chest4
    {
     OFFSET 0.000000 9.552100 0.000000
     CHANNELS 3 Yrotation Xrotation Zrotation
     JOINT Neck
     {
      OFFSET 0.000000 14.453000 0.000000
      CHANNELS 3 Yrotation Xrotation Zrotation
      JOINT Head
      {
       OFFSET 0.000000 8.936500 -0.011300
       CHANNELS 3 Yrotation Xrotation Zrotation
       End Site
       {
        OFFSET 0.000000 17.073600 -0.006000
       }
      }
     }
     JOINT RightCollar
     {
      OFFSET -2.921100 9.558500 0.000000
      CHANNELS 3 Yrotation Xrotation Zrotation
      JOINT RightShoulder
      {
       OFFSET -13.519700 0.000000 0.000000
       CHANNELS 3 Yrotation Xrotation Zrotation
       JOINT RightElbow
       {
        OFFSET 0.000000 -29.696600 0.000000
        CHANNELS 3 Yrotation Xrotation Zrotation
        JOINT RightWrist
        {
         OFFSET 0.000000 -24.004700 0.000000
         CHANNELS 3 Yrotation Xrotation Zrotation
         End Site
         {
          OFFSET 0.000000 -17.728500 0.000000
         }
        }
       }
      }
     }
     JOINT LeftCollar
     {
      OFFSET 2.921100 9.558500 0.000000
      CHANNELS 3 Yrotation Xrotation Zrotation
      JOINT LeftShoulder
      {
       OFFSET 13.519700 0.000000 0.000000
       CHANNELS 3 Yrotation Xrotation Zrotation
       JOINT LeftElbow
       {
        OFFSET 0.000000 -29.696600 0.000000
        CHANNELS 3 Yrotation Xrotation Zrotation
        JOINT LeftWrist
        {
         OFFSET 0.000000 -24.004700 0.000000
         CHANNELS 3 Yrotation Xrotation Zrotation
         End Site
         {
          OFFSET 0.000000 -17.728500 0.000000
         }
        }
       }
      }
     }
    }
   }
  }
 }
 JOINT RightHip
 {
  OFFSET -7.771700 -0.012900 -0.001300
  CHANNELS 3 Yrotation Xrotation Zrotation
  JOINT RightKnee
  {
   OFFSET 0.000000 -40.869800 0.001200
   CHANNELS 3 Yrotation Xrotation Zrotation
   JOINT RightAnkle
   {
    OFFSET 0.000000 -39.717900 0.002100
    CHANNELS 3 Yrotation Xrotation Zrotation
    JOINT RightToe
    {
     OFFSET 0.000000 -4.965400 11.033500
     CHANNELS 3 Yrotation Xrotation Zrotation
     End Site
     {
      OFFSET 0.000000 -1.423100 5.872300
     }
    }
   }
  }
 }
 JOINT LeftHip
 {
  OFFSET 7.771700 -0.012900 -0.001300
  CHANNELS 3 Yrotation Xrotation Zrotation
  JOINT LeftKnee
  {
   OFFSET 0.000000 -40.869800 0.001200
   CHANNELS 3 Yrotation Xrotation Zrotation
   JOINT LeftAnkle
   {
    OFFSET 0.000000 -39.717900 0.002100
    CHANNELS 3 Yrotation Xrotation Zrotation
    JOINT LeftToe
    {
     OFFSET 0.000000 -4.965400 11.033500
     CHANNELS 3 Yrotation Xrotation Zrotation
     End Site
     {
      OFFSET 0.000000 -1.423100 5.872300
     }
    }
   }
  }
 }
}
MOTION
Frames: 15
Frame Time: 0.008333
-17.592510 54.503464 27.122068 -175.279328 -32.003209 -10.738799 -0.511312 13.421101 5.230844 -0.312481 7.800108 2.045437 -0.365684 9.722685 2.538757 -0.293731 7.829847 2.059635 0.796002 17.666037 -2.373499 1.380608 -7.107030 -2.687540 1.357099 3.845509 -2.700594 -17.215924 -9.893024 7.664495 -45.518438 -63.719883 58.688939 6.167490 -7.479198 -7.349019 -9.817762 4.462509 -3.586521 5.109647 -5.503188 -2.510592 -79.626520 -68.004236 89.598963 16.604931 -24.230407 -9.288929 -19.092480 -33.956925 0.995374 7.738472 87.351446 2.369670 0.124313 -17.790672 4.564781 -0.048249 0.491366 0.025742 -14.893732 -45.974827 12.184242 170.210274 79.700493 164.795042 -1.555853 -16.100356 2.681098 -0.837681 -2.484041 -0.367092
-17.585218 54.516930 27.117912 -175.272730 -32.028877 -10.725369 -0.496591 13.454902 5.234286 -0.306447 7.822175 2.054659 -0.348938 9.764587 2.559032 -0.296717 7.837249 2.061868 0.745886 17.631202 -2.469782 1.349744 -7.142924 -2.778162 1.348272 3.874412 -2.671581 -17.248639 -10.023349 7.643014 -45.520256 -63.714187 58.661455 6.170699 -7.475970 -7.359745 -9.875030 4.535183 -3.565577 5.122189 -5.752993 -2.504130 -79.077541 -67.922600 89.030167 16.584242 -23.964386 -10.153489 -19.066752 -33.967780 0.969605 7.726672 87.411557 2.373970 0.120514 -17.827508 4.552759 -0.044828 0.486553 0.020834 -14.875707 -45.958294 12.160233 170.286760 79.691571 164.870850 -1.563139 -16.135373 2.679495 -0.827443 -2.456824 -0.365368
-17.578820 54.534656 27.109645 -175.239399 -32.090749 -10.726851 -0.496919 13.526839 5.236919 -0.314033 7.830442 2.051945 -0.317505 9.828064 2.589496 -0.300674 7.847433 2.063817 0.695435 17.583952 -2.576702 1.321011 -7.191912 -2.879947 1.338416 3.895946 -2.632204 -17.250621 -10.173633 7.615101 -45.477498 -63.696139 58.561867 6.121819 -7.432388 -7.415571 -9.927883 4.568040 -3.554409 5.122958 -5.982194 -2.455986 -78.516566 -67.939788 88.400579 16.506145 -23.681087 -10.807953 -19.058905 -33.930018 0.925750 7.753542 87.463463 2.412834 0.125346 -17.864942 4.538783 -0.045341 0.480453 0.013882 -14.868547 -45.900665 12.120802 170.353673 79.683358 164.933477 -1.558371 -16.157023 2.677378 -0.837010 -2.445894 -0.366463
-17.572711 54.551246 27.106071 -175.218528 -32.132114 -10.722097 -0.490718 13.575737 5.239654 -0.322240 7.840721 2.048910 -0.313191 9.844581 2.594984 -0.298045 7.860854 2.068271 0.667529 17.574684 -2.678042 1.296964 -7.255366 -2.993731 1.346375 3.962002 -2.569868 -17.247684 -10.325237 7.576513 -45.462901 -63.602793 58.499095 6.127054 -7.432465 -7.424568 -9.961165 4.646878 -3.542123 5.094846 -6.214436 -2.377053 -77.954070 -68.018364 87.758722 16.362190 -23.382597 -11.237022 -19.052721 -33.914169 0.893732 7.623712 87.510950 2.293332 0.136057 -17.900327 4.524066 -0.045043 0.480175 0.008360 -14.866518 -45.861482 12.092435 170.469323 79.684259 165.043139 -1.551184 -16.185092 2.670166 -0.831498 -2.421302 -0.362995
-17.567190 54.568594 27.104291 -175.194956 -32.171873 -10.718895 -0.489787 13.624195 5.242444 -0.311921 7.866728 2.057147 -0.325857 9.844974 2.590328 -0.296243 7.874988 2.072504 0.640467 17.556430 -2.787207 1.278662 -7.331723 -3.119387 1.354232 4.023536 -2.504596 -17.246432 -10.469941 7.525537 -45.463253 -63.518782 58.478876 6.124941 -7.412344 -7.443914 -10.000407 4.721483 -3.535829 5.026788 -6.438490 -2.271469 -77.375959 -68.112971 87.127343 16.166091 -23.082761 -11.483844 -19.060056 -33.896446 0.864929 7.487654 87.549836 2.161798 0.150740 -17.933715 4.506393 -0.051544 0.475524 0.000250 -14.876536 -45.823368 12.068687 170.561118 79.687203 165.124830 -1.548987 -16.203345 2.661412 -0.822571 -2.402962 -0.359399
-17.560757 54.586786 27.104595 -175.173033 -32.209380 -10.723748 -0.488799 13.671083 5.255169 -0.293398 7.924620 2.083734 -0.316387 9.909417 2.610051 -0.289171 7.926518 2.088026 0.569093 17.394771 -2.950203 1.264865 -7.416486 -3.254851 1.315405 3.892234 -2.527199 -17.232381 -10.548321 7.490446 -45.480090 -63.485261 58.471851 6.116222 -7.347176 -7.442450 -10.081225 4.647463 -3.555964 4.922011 -6.644062 -2.150106 -76.780542 -68.196502 86.515116 15.935725 -22.787642 -11.623361 -19.064133 -33.875100 0.848382 7.324274 87.582296 2.006610 0.154757 -17.960694 4.497079 -0.045214 0.478406 -0.005815 -14.937055 -45.788540 12.071629 170.594244 79.681627 165.130892 -1.523315 -16.194650 2.640854 -0.829836 -2.408677 -0.361833
-17.561794 54.601547 27.111372 -175.125868 -32.208386 -10.697769 -0.529964 13.683423 5.223626 -0.285435 7.962328 2.098868 -0.311297 9.954074 2.623857 -0.285460 7.962335 2.098952 0.518151 17.285065 -3.101687 1.254488 -7.501782 -3.397442 1.313771 3.889863 -2.477785 -17.182124 -10.718892 7.379312 -45.517780 -63.390472 58.467622 6.190329 -7.309590 -7.443602 -10.154791 4.625665 -3.577039 4.797600 -6.823052 -2.027976 -76.201024 -68.268326 85.947921 15.693203 -22.491543 -11.740392 -19.087050 -33.906061 0.803419 7.145623 87.621175 1.812922 0.163969 -17.990612 4.495757 -0.045525 0.482338 -0.008436 -14.965196 -45.792332 11.997799 170.690129 79.702733 165.229173 -1.530103 -16.229588 2.595125 -0.781828 -2.356070 -0.338524
-17.556663 54.620941 27.115657 -175.110546 -32.245102 -10.697801 -0.530473 13.726569 5.236723 -0.284247 7.987814 2.107359 -0.316550 9.956855 2.615218 -0.276105 8.017341 2.125540 0.478257 17.209350 -3.247451 1.245959 -7.579107 -3.543947 1.323846 3.917498 -2.431569 -17.165007 -10.864051 7.297225 -45.225287 -63.362852 58.202422 6.233461 -7.341013 -7.431796 -10.226947 4.633487 -3.597505 4.673307 -6.969857 -1.920506 -75.682896 -68.336571 85.461528 15.460088 -22.183333 -11.899338 -19.082090 -33.885144 0.789133 7.593594 87.642718 2.265111 0.141236 -18.005514 4.491642 -0.041679 0.482513 -0.013493 -14.975713 -45.757949 11.971532 170.710282 79.711828 165.251912 -1.525560 -16.231045 2.575481 -0.777236 -2.345259 -0.334665
-17.545594 54.643288 27.119895 -175.125905 -32.302286 -10.721989 -0.491913 13.782528 5.292607 -0.287272 8.005380 2.108005 -0.308773 10.006159 2.642505 -0.280647 8.023913 2.125114 0.437457 17.143458 -3.394387 1.236837 -7.645464 -3.691836 1.325005 3.924196 -2.414516 -17.157542 -10.964921 7.247203 -44.898086 -63.411469 57.907690 6.285477 -7.328633 -7.374293 -10.271871 4.598411 -3.622937 4.534711 -7.042507 -1.824424 -75.255964 -68.401928 85.072142 15.251190 -21.850238 -12.124199 -19.067968 -33.829644 0.820445 7.625636 87.648329 2.304116 0.137379 -18.011230 4.482878 -0.046805 0.482959 -0.017332 -15.038209 -45.709356 12.013919 170.624512 79.697434 165.142208 -1.465909 -16.163740 2.577934 -0.828539 -2.406227 -0.372549
-17.539814 54.662593 27.130229 -175.119395 -32.326138 -10.727548 -0.484979 13.805298 5.317983 -0.295484 8.012529 2.093610 -0.296420 10.059705 2.684679 -0.285642 8.031330 2.124082 0.395721 17.084623 -3.540297 1.226500 -7.704061 -3.838665 1.323213 3.926864 -2.404347 -17.144448 -11.050669 7.200005 -44.599384 -63.479796 57.637055 6.364246 -7.286889 -7.283934 -10.360697 4.619503 -3.646048 4.457204 -7.155815 -1.760157 -74.913917 -68.460065 84.767091 15.076216 -21.488256 -12.416237 -19.055449 -33.816202 0.827519 7.639827 87.660490 2.324482 0.124272 -18.018907 4.483331 -0.050209 0.486631 -0.019579 -15.105786 -45.694870 12.008362 170.571960 79.698478 165.080603 -1.406417 -16.124881 2.542627 -0.856485 -2.427776 -0.384208
-17.542490 54.677400 27.147854 -175.060193 -32.302345 -10.711762 -0.545643 13.785497 5.292712 -0.292168 8.037406 2.102032 -0.303745 10.079610 2.692965 -0.287603 8.051262 2.131173 0.355746 17.028568 -3.681925 1.217026 -7.759616 -3.981603 1.323342 3.921342 -2.400842 -17.090177 -11.128900 7.150193 -44.348455 -63.540511 57.378624 6.441800 -7.231346 -7.173555 -10.435176 4.625115 -3.671131 4.383481 -7.246477 -1.704921 -74.631150 -68.512414 84.526454 14.937762 -21.104262 -12.759672 -19.046187 -33.861878 0.783494 7.756512 87.679041 2.454437 0.091027 -18.027171 4.500296 -0.043634 0.488350 -0.021383 -15.173321 -45.728310 11.914577 170.488331 79.724405 165.033587 -1.400886 -16.125482 2.446469 -0.806029 -2.387137 -0.350885
-17.533894 54.701617 27.156185 -175.066488 -32.370718 -10.740350 -0.517690 13.844090 5.349451 -0.292879 8.059708 2.106583 -0.309685 10.100278 2.699349 -0.290716 8.070387 2.135855 0.317698 16.971136 -3.815970 1.207894 -7.816706 -4.117104 1.323398 3.890340 -2.419367 -17.037164 -11.182854 7.119350 -44.138343 -63.558295 57.166994 6.507529 -7.163547 -7.052435 -10.473026 4.601878 -3.695647 4.291222 -7.308649 -1.648467 -74.370044 -68.573951 84.308376 14.832407 -20.709630 -13.125864 -19.018052 -33.788310 0.811552 7.912240 87.672229 2.618082 0.066240 -18.025331 4.500251 -0.039411 0.489414 -0.022005 -15.225067 -45.672061 11.923235 170.314980 79.715539 164.857844 -1.323053 -16.038771 2.434014 -0.869703 -2.458110 -0.385983
-17.530224 54.724046 27.167834 -175.061640 -32.423842 -10.749988 -0.508323 13.887674 5.380179 -0.297358 8.080196 2.112988 -0.313124 10.120419 2.698270 -0.295197 8.064821 2.124729 0.282995 16.934163 -3.924324 1.194953 -7.877585 -4.240042 1.325853 3.884386 -2.420070 -16.902232 -11.268710 7.070835 -44.088238 -63.500470 57.036267 6.553147 -7.084676 -6.923754 -10.493446 4.596020 -3.702197 4.208203 -7.367077 -1.595297 -74.118104 -68.681481 84.079958 14.750975 -20.298949 -13.490463 -18.965689 -33.740003 0.809090 7.945730 87.669107 2.665890 0.042298 -18.020875 4.510842 -0.036283 0.487705 -0.021900 -15.263776 -45.636966 11.894660 170.095784 79.706622 164.639480 -1.261673 -15.963116 2.416630 -0.917585 -2.514922 -0.411657
-17.529685 54.742038 27.186868 -175.022820 -32.425662 -10.762071 -0.542391 13.886450 5.391964 -0.296650 8.104750 2.139678 -0.323371 10.125853 2.669081 -0.296777 8.068793 2.122254 0.243990 16.889540 -4.022552 1.177522 -7.941943 -4.347611 1.327386 3.911071 -2.396014 -16.823495 -11.357822 7.022144 -44.129662 -63.404685 57.072516 6.579482 -6.998102 -6.791729 -10.502956 4.579522 -3.705064 4.150546 -7.423488 -1.544901 -73.912922 -68.880677 83.856428 14.684394 -19.849777 -13.842472 -18.945537 -33.741417 0.803914 7.945115 87.667349 2.674642 0.039507 -18.023540 4.517821 -0.058108 0.493471 -0.015777 -15.334410 -45.654519 11.823181 169.711033 79.709834 164.316766 -1.256537 -15.898588 2.323507 -0.878199 -2.536106 -0.406706
-17.529074 54.765802 27.198014 -175.013380 -32.493498 -10.770332 -0.538617 13.948991 5.408173 -0.298333 8.117237 2.145887 -0.325537 10.125674 2.653904 -0.299176 8.142774 2.162254 0.198913 16.782109 -4.139630 1.157366 -8.008760 -4.438505 1.332697 3.862067 -2.422043 -16.785148 -11.406565 6.996314 -44.243273 -63.270737 57.232251 6.593966 -6.911028 -6.665770 -10.499291 4.495323 -3.729446 4.130208 -7.479355 -1.497821 -73.771479 -69.190344 83.644702 14.637975 -19.361588 -14.190141 -18.879392 -33.676703 0.788752 7.848839 87.657722 2.593492 0.012796 -18.015454 4.534927 -0.058094 0.489496 -0.015354 -15.356189 -45.607878 11.760983 169.334080 79.695583 163.961384 -1.205841 -15.810197 2.291292 -0.914564 -2.603160 -0.433721
